<svg xmlns="http://www.w3.org/2000/svg" version="1.1" xmlns:xlink="http://www.w3.org/1999/xlink" xmlns:svgjs="http://svgjs.dev/svgjs" width="1440" height="560" preserveAspectRatio="none" viewBox="0 0 1440 560"><g mask="url(&quot;#SvgjsMask1005&quot;)" fill="none"><rect width="1440" height="560" x="0" y="0" fill="rgba(142, 112, 101, 1)"></rect><path d="M0 23.33C41.08 15.11 85.05 118.69 140 112C180.9 107.02 150.9 32.64 191.69 0C220.9 -23.36 235.85 0 280 0C350 0 350 0 420 0C490 0 490 0 560 0C630 0 630 0 700 0C770 0 770 0 840 0C910 0 910 0 980 0C1026.66 0 1073.33 -17.39 1073.33 0C1073.33 23 1024.97 38.61 980 80.77C950.3 108.61 924 112.64 924 140C924 163.65 951.47 162.11 980 182.78C1048.09 232.11 1048.72 231.27 1117.25 280C1118.72 281.04 1118.7 282.33 1120 282.33C1121.15 282.33 1120.87 280.93 1122.15 280C1190.87 229.99 1183.97 203.95 1260 180.44C1322.89 160.99 1336.99 207.13 1400 194.09C1434.67 186.91 1449.74 174.24 1455.35 140C1465.65 77.19 1407.8 39.73 1431.82 0C1450.12 -30.27 1516.42 -30.51 1540 0C1570.51 39.49 1540 70 1540 140C1540 210 1540 210 1540 280C1540 315.75 1562.57 331.18 1540 351.49C1492.57 394.18 1466.74 375.03 1400 406C1392.92 409.29 1394.4 412.32 1392.36 420C1373.91 489.32 1398.23 518.53 1359.02 560C1332.05 588.53 1309.51 560 1260 560C1190 560 1190 560 1120 560C1050 560 1050 560 980 560C910 560 910 560 840 560C778.97 560 744.54 592.58 717.95 560C687.4 522.58 733.06 484.45 725.71 420C724.08 405.7 712.22 402.5 700 402.5C689.82 402.5 683.63 407.77 680.91 420C666.13 486.52 699.64 519.89 665 560C639.19 589.89 612.5 560 560 560C490 560 490 560 420 560C360.14 560 307.68 589.57 300.29 560C290.18 519.57 391.14 467.85 385 420C381 388.85 330.57 402 280 402C264.67 402 255.98 405.2 253.19 420C241.09 484.2 281.88 520.83 250.21 560C225.28 590.83 195.11 560 140 560C70 560 35 595 0 560C-35 525 0 490 0 420C0 350 0 350 0 280C0 210 0 210 0 140C0 81.66 -28.92 29.11 0 23.33" stroke="rgba(255, 224, 178, 1)" stroke-width="2"></path><path d="M420 224.85C407.9 224.85 395.41 251.15 395.41 280C395.41 335.6 407.93 393.75 420 393.75C432.05 393.75 443.64 335.69 443.64 280C443.64 251.24 432.02 224.85 420 224.85" stroke="rgba(255, 224, 178, 1)" stroke-width="2"></path><path d="M1421 560C1421 530.13 1504.16 455.38 1540 455.38C1563.66 455.38 1567.84 535.53 1540 560C1508.34 587.84 1421 582.44 1421 560" stroke="rgba(255, 224, 178, 1)" stroke-width="2"></path><path d="M0 65C30.65 65 71.77 89.73 98.44 140C128.8 197.23 99.93 211.66 114.07 280C120.71 312.1 126.11 340.87 140 340.87C154.29 340.87 150.59 307.42 170.43 280C220.59 210.67 232.41 147.37 280 147.37C321.25 147.37 348.11 218.54 348.11 280C348.11 320.86 317.97 320.62 280 352C233.27 390.62 202.99 371.58 178.72 420C150.86 475.58 191.16 504.23 175.74 560C171.8 574.23 157.87 560 140 560C70 560 38.41 591.59 0 560C-31.59 534.03 -17.64 491.21 0 444.89C9.02 421.21 53.33 431.74 53.33 420C53.33 408.53 8.72 421.34 0 398.46C-17.95 351.34 0 339.23 0 280C0 210 0 210 0 140C0 102.5 -18.57 65 0 65" stroke="rgba(255, 224, 178, 1)" stroke-width="2"></path><path d="M280 124.44C251.02 124.44 245.54 49.11 245.54 0C245.54 -13.11 262.77 0 280 0C326.66 0 373.33 -23.33 373.33 0C373.33 38.89 314.91 124.44 280 124.44" stroke="rgba(255, 224, 178, 1)" stroke-width="2"></path><path d="M451.82 140C443.72 71.18 425.07 40.19 456.13 0C479.16 -29.81 508.07 0 560 0C600.25 0 608.11 -16.68 640.5 0C678.11 19.38 666.38 72.12 700 72.12C741.9 72.12 742.1 25.47 791.54 0C812.1 -10.59 815.77 0 840 0C910 0 910 0 980 0C987.78 0 995.56 -2.9 995.56 0C995.56 3.83 987.14 6.06 980 13.46C919.54 76.06 860.36 81.56 860.36 140C860.36 190.52 919.6 186.48 980 231.39C1013.74 256.48 1015.51 254.15 1048.63 280C1085.51 308.79 1086.15 340.67 1120 340.67C1149.84 340.67 1144.96 306.9 1176 280C1214.96 246.23 1214.27 220.63 1260 219.33C1326.27 217.45 1328.12 254.95 1400 273.64C1444.78 285.28 1493.33 276.08 1493.33 280C1493.33 283.93 1431.81 262.27 1400 289.33C1349.51 332.27 1360.15 352.69 1328.73 420C1296.98 488.03 1305.16 495.83 1273.66 560C1270.8 565.83 1266.83 560 1260 560C1190 560 1190 560 1120 560C1050 560 1050 560 980 560C910 560 910 560 840 560C801.41 560 770.29 584.41 762.82 560C748.86 514.41 814.44 476.77 797.14 420C783.03 373.72 746.18 353.89 700 353.89C661.55 353.89 652.18 379.12 627.88 420C590.93 482.17 607.87 497.37 577.5 560C573.93 567.37 568.75 560 560 560C490 560 490 560 420 560C385.5 560 351.01 576.43 351.01 560C351.01 533.93 383.44 515.61 420 475C446.46 445.61 464.58 455.16 477.04 420C499.13 357.66 495.3 348.93 489.09 280C482.69 208.93 460.2 211.18 451.82 140" stroke="rgba(255, 224, 178, 1)" stroke-width="2"></path><path d="M1536.74 140C1513.21 67.78 1470.46 48.51 1471.59 0C1472.09 -21.49 1528.77 -22.98 1540 0C1562.98 47.02 1540 70 1540 140C1540 175 1540.81 210 1540 210C1539.18 210 1547.42 172.78 1536.74 140" stroke="rgba(255, 224, 178, 1)" stroke-width="2"></path><path d="M1464.75 560C1464.75 541.11 1517.34 493.85 1540 493.85C1554.96 493.85 1557.6 544.53 1540 560C1519.98 577.6 1464.75 574.19 1464.75 560" stroke="rgba(255, 224, 178, 1)" stroke-width="2"></path><path d="M0 106.67C13.62 106.67 36.81 115.57 43.75 140C61.44 202.23 63.78 216.57 49.26 280C41.9 312.15 14.32 331.15 0 331.15C-10.31 331.15 0 305.58 0 280C0 210 0 210 0 140C0 123.34 -8.25 106.67 0 106.67" stroke="rgba(255, 224, 178, 1)" stroke-width="2"></path><path d="M1540 60C1532.47 60 1511.36 20.97 1511.36 0C1511.36 -9.03 1535.37 -9.69 1540 0C1549.69 20.31 1546.79 60 1540 60" stroke="rgba(255, 224, 178, 1)" stroke-width="2"></path><path d="M246.52 280C246.52 262.26 265.46 239.47 280 239.47C292.6 239.47 300.81 261.22 300.81 280C300.81 292.48 291.69 302 280 302C264.54 302 246.52 293.52 246.52 280" stroke="rgba(255, 224, 178, 1)" stroke-width="2"></path><path d="M534.55 280C538.16 234.42 527.08 207.37 560 190.91C609.8 166.01 633.07 180.99 700 197.27C773.07 215.04 767.28 237.51 840 259C907.28 278.88 980 266.77 980 280C980 293.43 910.86 305.91 840 312.31C770.86 318.55 759.96 280.93 700 305.28C627.38 334.77 631.71 358.66 574.85 420C561.71 434.17 568.11 456.3 560 456.3C551.61 456.3 544.71 439.79 541.85 420C531.98 351.64 529.09 348.96 534.55 280" stroke="rgba(255, 224, 178, 1)" stroke-width="2"></path><path d="M1229.85 280C1242.92 266.85 1243.64 258.22 1260 258.22C1285.2 258.22 1312.26 257.43 1312.97 280C1314.8 338.32 1289.41 350.14 1265.09 420C1262.92 426.23 1266 429.91 1260 432.17C1193.45 457.3 1181.39 478.95 1120 474.78C1091.7 472.86 1080.63 442.81 1080.63 420C1080.63 404.92 1103.88 414.12 1120 399C1178.49 344.12 1172.92 337.24 1229.85 280" stroke="rgba(255, 224, 178, 1)" stroke-width="2"></path><path d="M0 522.67C22.62 522.67 67.2 550.04 67.2 560C67.2 568.71 21.6 572 0 560C-12 553.33 -10.98 522.67 0 522.67" stroke="rgba(255, 224, 178, 1)" stroke-width="2"></path><path d="M401.74 560C401.74 553.1 408.52 537.5 420 537.5C439.38 537.5 463.45 554.04 463.45 560C463.45 565.29 441.73 560 420 560C410.87 560 401.74 564.35 401.74 560" stroke="rgba(255, 224, 178, 1)" stroke-width="2"></path><path d="M807.69 560C807.69 526.36 808.19 471.08 840 470C894.34 468.16 910.05 512.01 980 554.17C984.71 557.01 989.33 558.42 989.33 560C989.33 561.34 984.66 560 980 560C910 560 910 560 840 560C823.85 560 807.69 571.36 807.69 560" stroke="rgba(255, 224, 178, 1)" stroke-width="2"></path><path d="M1508.5 560C1508.5 552.09 1530.51 532.31 1540 532.31C1546.26 532.31 1547.37 553.52 1540 560C1531.62 567.37 1508.5 565.94 1508.5 560" stroke="rgba(255, 224, 178, 1)" stroke-width="2"></path></g><defs><mask id="SvgjsMask1005"><rect width="1440" height="560" fill="#ffffff"></rect></mask></defs></svg>